<?xml version="1.0" standalone="no"?><!DOCTYPE svg PUBLIC "-//W3C//DTD SVG 1.1//EN" "http://www.w3.org/Graphics/SVG/1.1/DTD/svg11.dtd"><svg t="1699169752560" class="icon" viewBox="0 0 1024 1024" version="1.1" xmlns="http://www.w3.org/2000/svg" p-id="6608" xmlns:xlink="http://www.w3.org/1999/xlink" width="200" height="200"><path d="M857.6 6.4H147.2C89.6 6.4 44.8 51.2 44.8 108.8v812.8c0 57.6 44.8 102.4 102.4 102.4h710.4c57.6 0 102.4-44.8 102.4-102.4V108.8c0-57.6-44.8-102.4-102.4-102.4M313.6 742.4H217.6V633.6H320l-6.4 108.8m0-211.2H217.6V435.2H320l-6.4 96m0-204.8H217.6V224H320l-6.4 102.4m486.4 416H396.8V633.6h403.2v108.8m0-211.2H396.8V435.2h403.2v96m0-204.8H396.8V224h403.2v102.4m0 0z" fill="#040000" p-id="6609"></path></svg>